<?xml version="1.0" encoding="UTF-8"?>
<svg id="Capa_1" data-name="Capa 1" xmlns="http://www.w3.org/2000/svg" viewBox="0 0 520 520">
  <defs>
    <style>
      .cls-1 {
        fill: #006cff;
      }
    </style>
  </defs>
  <path class="cls-1" d="M19.83,229.11c-8.33-7.98-12.48-17.91-12.48-29.8s4.15-21.82,12.48-29.8c8.32-7.98,18.93-11.97,31.84-11.97s22.92,4,31.07,11.97c8.16,7.99,12.23,17.92,12.23,29.8s-4.08,21.82-12.23,29.8c-8.15,7.98-18.51,11.97-31.07,11.97s-23.52-3.99-31.84-11.97ZM19.83,364.65c-8.33-7.98-12.48-17.91-12.48-29.8s4.15-21.82,12.48-29.8c8.32-7.98,18.93-11.97,31.84-11.97s22.92,4,31.07,11.97c8.16,7.98,12.23,17.92,12.23,29.8s-4.08,21.83-12.23,29.8c-8.15,7.98-18.51,11.97-31.07,11.97s-23.52-3.99-31.84-11.97Z"/>
  <path class="cls-1" d="M164.4,394.49c-18.34-8.32-32.85-19.61-43.55-33.87s-16.56-30.06-17.57-47.38h71.83c1.35,10.88,6.7,19.87,16.05,27,9.34,7.13,20.97,10.69,34.9,10.69s24.2-2.71,31.84-8.15c7.64-5.43,11.46-12.39,11.46-20.89,0-9.17-4.67-16.05-14.01-20.63-9.34-4.59-24.2-9.59-44.58-15.03-21.06-5.09-38.29-10.36-51.71-15.79-13.42-5.43-24.96-13.76-34.64-24.96-9.68-11.21-14.52-26.31-14.52-45.34,0-15.62,4.5-29.88,13.5-42.79,9-12.9,21.91-23.09,38.72-30.57,16.81-7.47,36.59-11.2,59.35-11.2,33.62,0,60.45,8.4,80.49,25.21,20.03,16.81,31.07,39.48,33.11,68.01h-68.26c-1.02-11.21-5.69-20.12-14.01-26.75-8.33-6.62-19.45-9.93-33.37-9.93-12.91,0-22.84,2.38-29.8,7.13-6.97,4.76-10.45,11.38-10.45,19.87,0,9.51,4.75,16.73,14.27,21.65,9.5,4.93,24.28,9.93,44.32,15.03,20.38,5.1,37.19,10.37,50.43,15.79,13.24,5.43,24.7,13.84,34.39,25.21,9.68,11.38,14.68,26.41,15.03,45.08,0,16.31-4.51,30.91-13.5,43.81-9,12.91-21.91,23.01-38.72,30.32-16.81,7.3-36.42,10.95-58.84,10.95s-43.81-4.16-62.15-12.48Z"/>
  <path class="cls-1" d="M449.95,178.74v136.53c0,9.51,2.29,16.39,6.88,20.63,4.59,4.25,12.3,6.37,23.18,6.37h33.12v60.11h-44.83c-60.11,0-90.17-29.2-90.17-87.62v-102.4c0-18.57-15.05-33.62-33.62-33.62h0v-63.16h168.62v63.16h-63.17Z"/>
</svg>